<svg width="129" height="15" viewBox="0 0 129 15" fill="none" xmlns="http://www.w3.org/2000/svg">
<path d="M5.81327 1.6173C6.08727 1.01337 6.68916 0.625507 7.35233 0.625507V0.625507C8.01775 0.625507 8.62125 1.01597 8.89394 1.62295L13.7256 12.3774C14.114 13.2418 13.4816 14.2191 12.534 14.2191V14.2191C12.0099 14.2191 11.5366 13.9059 11.3316 13.4236L11.0089 12.6639C10.6082 11.721 9.68284 11.1087 8.65831 11.1087H5.88283C4.86501 11.1087 3.94777 11.7228 3.56004 12.6639L3.24347 13.4323C3.0473 13.9084 2.58324 14.2191 2.06829 14.2191V14.2191C1.14429 14.2191 0.529079 13.2644 0.910837 12.423L5.81327 1.6173ZM7.27183 9.03511C8.32555 9.03511 9.04794 7.97335 8.66108 6.99322V6.99322C8.16531 5.73718 6.38965 5.73163 5.88604 6.98454V6.98454C5.49157 7.96593 6.21413 9.03511 7.27183 9.03511V9.03511Z" fill="#647B64"/>
<path d="M14.7946 2.31494C14.5383 1.47453 15.167 0.625507 16.0457 0.625507V0.625507C16.6346 0.625507 17.1508 1.01907 17.3069 1.58692L19.7805 10.5898C19.7837 10.6015 19.7943 10.6095 19.8063 10.6095V10.6095C19.818 10.6095 19.8284 10.6019 19.8319 10.5907L22.5622 1.8641C22.7927 1.12718 23.4753 0.625507 24.2475 0.625507V0.625507C25.0232 0.625507 25.7081 1.13176 25.9357 1.87336L28.6106 10.5906C28.614 10.6018 28.6244 10.6095 28.6362 10.6095V10.6095C28.6482 10.6095 28.6587 10.6015 28.6619 10.59L31.199 1.55416C31.3532 1.00501 31.8539 0.625507 32.4243 0.625507V0.625507C33.2792 0.625507 33.891 1.45164 33.6417 2.2694L30.3579 13.039C30.1441 13.7401 29.4972 14.2191 28.7643 14.2191V14.2191C28.0431 14.2191 27.4039 13.7551 27.1803 13.0695L24.2374 4.04295C24.2337 4.03159 24.2231 4.02391 24.2112 4.02391V4.02391C24.1992 4.02391 24.1886 4.03159 24.1849 4.04295L21.242 13.0695C21.0185 13.7551 20.3792 14.2191 19.6581 14.2191V14.2191C18.9251 14.2191 18.2783 13.7401 18.0645 13.039L14.7946 2.31494Z" fill="#647B64"/>
<path d="M35.823 3.62551C35.823 1.96865 37.1662 0.625507 38.823 0.625507H44.1581C44.7414 0.625507 45.2141 1.09829 45.2141 1.68151V1.68151C45.2141 2.26472 44.7414 2.73751 44.1581 2.73751H40.074C39.1197 2.73751 38.346 3.51116 38.346 4.46551V4.46551C38.346 5.41986 39.1197 6.19351 40.074 6.19351H43.8361C44.3981 6.19351 44.8537 6.6491 44.8537 7.21111V7.21111C44.8537 7.77311 44.3981 8.22871 43.8361 8.22871H40.266C39.2056 8.22871 38.346 9.08832 38.346 10.1487V10.1487C38.346 11.2091 39.2056 12.0687 40.266 12.0687H44.4994C45.0932 12.0687 45.5746 12.5501 45.5746 13.1439V13.1439C45.5746 13.7377 45.0932 14.2191 44.4994 14.2191H38.823C37.1662 14.2191 35.823 12.876 35.823 11.2191V3.62551Z" fill="#647B64"/>
<path d="M56.1358 2.55912C55.6793 3.03953 54.881 3.00431 54.2857 2.71302C54.2357 2.68853 54.1843 2.66469 54.1317 2.64151C53.6511 2.41111 53.1639 2.29591 52.67 2.29591C52.3763 2.29591 52.0826 2.33431 51.7889 2.41111C51.4953 2.47511 51.2283 2.58391 50.988 2.73751C50.7477 2.87831 50.5475 3.07031 50.3873 3.31351C50.2404 3.54391 50.167 3.82551 50.167 4.15831C50.167 4.46551 50.2338 4.72791 50.3673 4.94551C50.5008 5.16311 50.681 5.34871 50.9079 5.50231C51.1482 5.65591 51.4352 5.79031 51.7689 5.90551C52.1026 6.02071 52.4697 6.13591 52.8702 6.25111C53.3241 6.39191 53.7913 6.55191 54.2719 6.73111C54.7658 6.91031 55.213 7.14711 55.6135 7.44151C56.0273 7.73591 56.361 8.10711 56.6147 8.55511C56.8816 9.00311 57.0151 9.55991 57.0151 10.2255C57.0151 10.9551 56.875 11.5951 56.5946 12.1455C56.3143 12.6831 55.9405 13.1311 55.4733 13.4895C55.0061 13.8479 54.4588 14.1167 53.8314 14.2959C53.2039 14.4751 52.5432 14.5647 51.849 14.5647C50.9279 14.5647 50.0269 14.4047 49.1458 14.0847C48.6608 13.9015 48.2243 13.6717 47.8363 13.3954C47.3166 13.0252 47.366 12.2829 47.8415 11.8574V11.8574C48.3494 11.4029 49.1394 11.4983 49.7161 11.8616C49.8577 11.9508 50.008 12.0326 50.167 12.1071C50.7544 12.3759 51.3284 12.5103 51.8891 12.5103C52.1827 12.5103 52.4831 12.4783 52.7901 12.4143C53.0972 12.3375 53.3708 12.2159 53.6111 12.0495C53.8647 11.8831 54.065 11.6783 54.2118 11.4351C54.372 11.1791 54.4521 10.8655 54.4521 10.4943C54.4521 10.1359 54.3653 9.84151 54.1918 9.61111C54.0182 9.36791 53.7846 9.16311 53.491 8.99671C53.1973 8.81751 52.8502 8.66391 52.4497 8.53591C52.0492 8.40791 51.6288 8.27351 51.1882 8.13271C50.7611 8.00471 50.3339 7.85111 49.9067 7.67191C49.4795 7.49271 49.0924 7.25591 48.7453 6.96151C48.4116 6.66711 48.138 6.30871 47.9244 5.88631C47.7108 5.45111 47.604 4.91351 47.604 4.27351C47.604 3.58231 47.7508 2.98711 48.0445 2.48791C48.3515 1.98871 48.7453 1.57911 49.2259 1.25911C49.7198 0.926307 50.2738 0.683107 50.8879 0.529506C51.5153 0.363107 52.1494 0.279907 52.7901 0.279907C53.511 0.279907 54.2385 0.401507 54.9727 0.644707C55.3368 0.763163 55.6772 0.910466 55.9938 1.08662C56.5343 1.38734 56.5619 2.11073 56.1358 2.55912V2.55912Z" fill="#647B64"/>
<path d="M58.8617 7.38391C58.8617 6.29591 59.0486 5.31671 59.4223 4.44631C59.8095 3.56311 60.3368 2.81431 61.0042 2.19991C61.685 1.58551 62.486 1.11191 63.4071 0.779107C64.3415 0.446307 65.356 0.279907 66.4507 0.279907C67.5586 0.279907 68.5798 0.446307 69.5143 0.779107C70.4487 1.11191 71.2563 1.58551 71.9371 2.19991C72.6179 2.81431 73.1452 3.56311 73.519 4.44631C73.9061 5.31671 74.0997 6.29591 74.0997 7.38391C74.0997 8.44631 73.9061 9.41911 73.519 10.3023C73.1452 11.1727 72.6179 11.9279 71.9371 12.5679C71.2563 13.1951 70.4487 13.6879 69.5143 14.0463C68.5798 14.3919 67.5586 14.5647 66.4507 14.5647C65.356 14.5647 64.3415 14.3919 63.4071 14.0463C62.486 13.6879 61.685 13.1951 61.0042 12.5679C60.3368 11.9279 59.8095 11.1727 59.4223 10.3023C59.0486 9.41911 58.8617 8.44631 58.8617 7.38391ZM61.6049 7.38391C61.6049 8.11351 61.7184 8.78551 61.9453 9.39991C62.1856 10.0015 62.5193 10.5263 62.9465 10.9743C63.387 11.4223 63.901 11.7743 64.4883 12.0303C65.089 12.2735 65.7498 12.3951 66.4707 12.3951C67.1915 12.3951 67.8523 12.2735 68.453 12.0303C69.0537 11.7743 69.5677 11.4223 69.9948 10.9743C70.4354 10.5263 70.7691 10.0015 70.996 9.39991C71.2363 8.78551 71.3565 8.11351 71.3565 7.38391C71.3565 6.67991 71.2363 6.02711 70.996 5.42551C70.7691 4.82391 70.442 4.29911 70.0149 3.85111C69.5877 3.40311 69.0738 3.05111 68.4731 2.79511C67.8723 2.53911 67.2049 2.41111 66.4707 2.41111C65.7365 2.41111 65.069 2.53911 64.4683 2.79511C63.881 3.05111 63.3737 3.40311 62.9465 3.85111C62.5193 4.29911 62.1856 4.82391 61.9453 5.42551C61.7184 6.02711 61.6049 6.67991 61.6049 7.38391Z" fill="#647B64"/>
<path d="M76.5352 2.96129C76.5352 1.67127 77.581 0.625507 78.871 0.625507V0.625507C79.8398 0.625507 80.708 1.22355 81.0534 2.12872L84.1536 10.2551C84.16 10.272 84.1762 10.2831 84.1942 10.2831V10.2831C84.2123 10.2831 84.2286 10.2719 84.235 10.255L87.2964 2.1419C87.6407 1.22942 88.5141 0.625507 89.4894 0.625507V0.625507C90.7839 0.625507 91.8333 1.67492 91.8333 2.96943V12.9676C91.8333 13.6588 91.273 14.2191 90.5818 14.2191V14.2191C89.8907 14.2191 89.3304 13.6588 89.3304 12.9676V3.31813C89.3304 3.30497 89.3197 3.29431 89.3065 3.29431V3.29431C89.2968 3.29431 89.288 3.30029 89.2844 3.3094L85.3074 13.4015C85.113 13.8948 84.6367 14.2191 84.1064 14.2191V14.2191C83.5739 14.2191 83.0961 13.8921 82.9032 13.3958L78.984 3.30948C78.9805 3.30033 78.9717 3.29431 78.9619 3.29431V3.29431C78.9487 3.29431 78.9381 3.30495 78.9381 3.31809V13.0177C78.9381 13.6812 78.4002 14.2191 77.7367 14.2191V14.2191C77.0731 14.2191 76.5352 13.6812 76.5352 13.0177V2.96129Z" fill="#647B64"/>
<path d="M94.9555 3.62551C94.9555 1.96865 96.2986 0.625507 97.9555 0.625507H103.291C103.874 0.625507 104.347 1.09829 104.347 1.68151V1.68151C104.347 2.26472 103.874 2.73751 103.291 2.73751H99.2064C98.2521 2.73751 97.4784 3.51116 97.4784 4.46551V4.46551C97.4784 5.41986 98.2521 6.19351 99.2064 6.19351H102.969C103.531 6.19351 103.986 6.6491 103.986 7.21111V7.21111C103.986 7.77311 103.531 8.22871 102.969 8.22871H99.3984C98.3381 8.22871 97.4784 9.08832 97.4784 10.1487V10.1487C97.4784 11.2091 98.3381 12.0687 99.3984 12.0687H103.632C104.226 12.0687 104.707 12.5501 104.707 13.1439V13.1439C104.707 13.7377 104.226 14.2191 103.632 14.2191H97.9555C96.2986 14.2191 94.9555 12.876 94.9555 11.2191V3.62551Z" fill="#647B64"/>
<path d="M123.476 9.22711C123.476 10.0463 123.329 10.7887 123.036 11.4543C122.742 12.1071 122.342 12.6639 121.834 13.1247C121.327 13.5855 120.726 13.9439 120.032 14.1999C119.338 14.4431 118.584 14.5647 117.769 14.5647C116.955 14.5647 116.201 14.4431 115.507 14.1999C114.813 13.9439 114.205 13.5855 113.685 13.1247C113.177 12.6639 112.777 12.1071 112.483 11.4543C112.203 10.7887 112.063 10.0463 112.063 9.22711V1.887C112.063 1.1903 112.628 0.625507 113.324 0.625507V0.625507C114.021 0.625507 114.586 1.1903 114.586 1.887V9.13111C114.586 9.52791 114.639 9.92471 114.746 10.3215C114.853 10.7055 115.026 11.0511 115.266 11.3583C115.52 11.6655 115.847 11.9151 116.248 12.1071C116.661 12.2991 117.169 12.3951 117.769 12.3951C118.37 12.3951 118.871 12.2991 119.271 12.1071C119.685 11.9151 120.012 11.6655 120.252 11.3583C120.506 11.0511 120.686 10.7055 120.793 10.3215C120.9 9.92471 120.953 9.52791 120.953 9.13111V1.887C120.953 1.1903 121.518 0.625507 122.215 0.625507V0.625507C122.911 0.625507 123.476 1.1903 123.476 1.887V9.22711Z" fill="#647B64"/>
<path d="M126.477 1.887C126.477 1.1903 127.042 0.625507 127.739 0.625507V0.625507C128.435 0.625507 129 1.1903 129 1.887V12.9576C129 13.6543 128.435 14.2191 127.739 14.2191V14.2191C127.042 14.2191 126.477 13.6543 126.477 12.9576V1.887Z" fill="#647B64"/>
</svg>
