<svg width="54" height="54" viewBox="0 0 54 54" fill="none" xmlns="http://www.w3.org/2000/svg">
<path d="M35.053 0.946477C29.7197 0.11981 24.2797 0.11981 18.9464 0.946477C16.7597 1.29314 15.1597 3.15979 15.1597 5.34646V15.1598H5.3464C3.15973 15.1598 1.29308 16.7598 0.946416 18.9465C0.119749 24.2798 0.119749 29.7198 0.946416 35.0531C1.29308 37.2398 3.15973 38.8398 5.3464 38.8398H9.82638C10.573 38.8398 11.1597 38.2531 11.1597 37.5065V32.9198C11.1597 27.4531 15.613 22.9998 21.0797 22.9998H32.9197C33.9864 22.9998 34.8397 22.1464 34.8397 21.0798V12.4931C34.8397 11.7464 35.4264 11.1598 36.1731 11.1598H37.5064C38.2531 11.1598 38.8397 10.5731 38.8397 9.82644V5.34646C38.8397 3.15979 37.2397 1.29314 35.053 0.946477ZM22.5464 9.87975C21.453 9.87975 20.413 8.83978 20.413 7.74644C20.413 6.62644 21.453 5.58645 22.5464 5.58645C23.0797 5.58645 23.6664 5.82648 24.0398 6.19981C24.4398 6.57315 24.7064 7.18644 24.7064 7.74644C24.7064 8.83978 23.6664 9.87975 22.5464 9.87975Z" fill="#647B64"/>
<path d="M53.053 18.9465C52.7063 16.7598 50.8397 15.1598 48.653 15.1598H40.173C39.4263 15.1598 38.8397 15.7464 38.8397 16.4931V21.0798C38.8397 24.3331 36.1997 26.9998 32.9197 26.9998H21.0797C17.7997 26.9998 15.1597 29.6398 15.1597 32.9198V48.6531C15.1597 50.8398 16.7597 52.7064 18.9464 53.0531C24.2797 53.8797 29.7196 53.8797 35.053 53.0531C37.2396 52.7064 38.8397 50.8398 38.8397 48.6531V38.8398H48.653C50.8397 38.8398 52.7063 37.2397 53.053 35.0531C53.8796 29.7197 53.8796 24.2798 53.053 18.9465ZM31.453 48.4131C30.3597 48.4131 29.293 47.3731 29.293 46.2531C29.293 45.1331 30.333 44.0931 31.453 44.0931C31.9597 44.0931 32.573 44.3331 32.9464 44.6798C33.3464 45.0531 33.613 45.6931 33.613 46.2264C33.5864 47.3731 32.5464 48.4131 31.453 48.4131Z" fill="#647B64"/>
</svg>
