<svg width="69" height="48" viewBox="0 0 69 48" fill="none" xmlns="http://www.w3.org/2000/svg">
<path d="M28.2662 33.0906C27.2805 33.0906 26.392 32.4961 26.016 31.5849L24.5778 28.0997C24.2018 27.1885 23.3134 26.594 22.3276 26.594H12.2641C11.2612 26.594 10.3609 27.2091 9.99633 28.1435L8.67076 31.5411C8.30622 32.4754 7.40592 33.0906 6.40297 33.0906H2.722C0.96653 33.0906 -0.211796 31.2889 0.491813 29.6806L12.8386 1.4586C13.2262 0.572539 14.1016 0 15.0688 0H19.9695C20.94 0 21.8177 0.576383 22.2033 1.46689L34.4254 29.6889C35.1215 31.2962 33.9432 33.0906 32.1916 33.0906H28.2662ZM19.6279 14.7956C18.8383 12.705 15.885 12.6939 15.0798 14.7785L14.2683 16.8795C13.6523 18.4744 14.8293 20.1908 16.5391 20.1908H18.1441C19.8461 20.1908 21.0227 18.4888 20.4214 16.8965L19.6279 14.7956Z" fill="#647B64"/>
<path d="M68.069 34.6329C68.069 36.6271 67.7116 38.4499 66.9967 40.1013C66.3143 41.7215 65.3231 43.1237 64.0233 44.3077C62.7235 45.4606 61.1475 46.3642 59.2952 47.0185C57.4755 47.6728 55.4445 48 53.2024 48C50.9277 48 48.8805 47.6728 47.0607 47.0185C45.241 46.3642 43.6974 45.4606 42.4301 44.3077C41.1628 43.1237 40.1879 41.7215 39.5055 40.1013C38.8231 38.4499 38.4819 36.6271 38.4819 34.6329V25.0088C38.4819 23.6644 37.3921 22.5746 36.0477 22.5746H35.8985H28.3092C27.2312 22.5746 26.2816 21.8656 25.9753 20.8321L24.8831 17.1475C24.4206 15.5873 25.5897 14.0214 27.217 14.0214H44.334C45.6784 14.0214 46.7683 15.1113 46.7683 16.4557V33.9786C46.7683 34.8822 46.882 35.739 47.1095 36.5492C47.3694 37.3593 47.7431 38.0915 48.2306 38.7459C48.7505 39.369 49.4166 39.8676 50.229 40.2415C51.0739 40.6154 52.0813 40.8023 53.2511 40.8023C54.4209 40.8023 55.412 40.6154 56.2244 40.2415C57.0693 39.8676 57.7517 39.369 58.2716 38.7459C58.7916 38.0915 59.1653 37.3593 59.3927 36.5492C59.6202 35.739 59.7339 34.8822 59.7339 33.9786V16.4557C59.7339 15.1113 60.8238 14.0214 62.1682 14.0214H65.6347C66.9791 14.0214 68.069 15.1113 68.069 16.4557V34.6329Z" fill="#647B64"/>
</svg>
