<svg width="46" height="52" viewBox="0 0 46 52" fill="none" xmlns="http://www.w3.org/2000/svg">
<path d="M43.0267 11.1198L25.6934 0.933176C24.0134 -0.0534904 21.9599 -0.0534904 20.2799 0.933176L2.94661 11.1198C1.31995 12.0798 0.306641 13.8398 0.306641 15.7065V36.2665C0.306641 38.1598 1.31995 39.8932 2.94661 40.8532L20.2799 51.0398C21.9599 52.0265 24.0134 52.0265 25.6934 51.0398L43.0267 40.8532C44.6534 39.8932 45.6667 38.1332 45.6667 36.2665V15.7065C45.6667 13.8398 44.6534 12.0798 43.0267 11.1198ZM37.3734 35.7065L24.04 43.7065C23.72 43.8932 23.3733 43.9998 23 43.9998C22.6267 43.9998 22.28 43.8932 21.96 43.7065L8.62663 35.7065C7.66663 35.1465 7.37327 33.9198 7.93327 32.9598C8.49327 31.9998 9.72001 31.7065 10.68 32.2665L22.9733 39.6531L32.4134 33.9732L27.4533 30.9865L25.7201 32.7198C25.3201 33.1198 24.8133 33.3065 24.3066 33.3065C23.8 33.3065 23.2934 33.1198 22.8934 32.7198C22.1201 31.9465 22.1201 30.6665 22.8934 29.8932L23.9067 28.8798L19.1066 25.9998L17.7201 27.3865C17.3201 27.7865 16.8133 27.9732 16.3066 27.9732C15.8 27.9732 15.2934 27.7865 14.8934 27.3865C14.1201 26.6132 14.1201 25.3332 14.8934 24.5598L15.5866 23.8665L8.62663 19.6798C8.01329 19.3065 7.66667 18.6665 7.66667 17.9732C7.66667 17.2798 8.03996 16.6132 8.62663 16.2665L21.96 8.26651C22.6 7.89318 23.4 7.89318 24.0133 8.26651L37.3467 16.2665C38.3067 16.8265 38.6 18.0532 38.04 19.0132C37.48 19.9465 36.2533 20.2665 35.2933 19.7065L23 12.3198L13.5601 17.9998L18.52 20.9865L20.2533 19.2532C21.0266 18.4798 22.3067 18.4798 23.0801 19.2532C23.8534 20.0265 23.8534 21.3065 23.0801 22.0798L22.0667 23.0932L26.8667 25.9732L28.2533 24.5865C29.0266 23.8132 30.3067 23.8132 31.0801 24.5865C31.8534 25.3598 31.8534 26.6398 31.0801 27.4132L30.3867 28.1065L37.3467 32.2932C37.96 32.6665 38.3066 33.3065 38.3066 33.9998C38.3066 34.6932 37.96 35.3598 37.3734 35.7065Z" fill="white"/>
</svg>
